<svg version="1.1" xmlns="http://www.w3.org/2000/svg" viewBox="0 0 137 181" width="274" height="362">
  <!-- svg-source:excalidraw -->

  <rect x="0" y="0" width="137" height="181" fill="#ffffff"></rect><g transform="translate(38 41) rotate(0 30.5 -2.5)" stroke="none"><path fill="#1e1e1e" d="M 2.00,-1.00 Q 2.00,-1.00 2.62,0.13 3.23,1.27 3.61,2.58 3.99,3.89 4.10,5.68 4.21,7.48 3.89,9.53 3.58,11.58 3.10,13.57 2.61,15.56 2.13,17.31 1.65,19.05 0.81,20.80 -0.03,22.56 -0.65,23.67 -1.28,24.77 -2.31,25.77 -3.35,26.76 -4.67,27.31 -5.99,27.86 -7.72,27.77 -9.45,27.67 -11.01,27.28 -12.56,26.90 -14.55,25.65 -16.54,24.41 -18.51,22.63 -20.47,20.85 -22.17,18.87 -23.87,16.89 -25.23,14.17 -26.59,11.45 -27.43,8.50 -28.27,5.55 -28.34,2.73 -28.40,-0.08 -28.40,-2.36 -28.40,-4.63 -28.20,-6.34 -27.99,-8.04 -27.28,-9.55 -26.58,-11.06 -25.33,-12.59 -24.08,-14.12 -22.25,-15.41 -20.42,-16.69 -18.48,-17.76 -16.53,-18.82 -14.15,-19.59 -11.77,-20.36 -9.09,-21.22 -6.41,-22.08 -3.24,-23.02 -0.06,-23.96 3.89,-24.93 7.85,-25.90 12.42,-26.89 16.99,-27.87 22.13,-28.58 27.28,-29.29 32.30,-30.16 37.32,-31.03 42.69,-31.40 48.06,-31.78 53.22,-31.93 58.37,-32.09 62.57,-32.16 66.78,-32.22 70.29,-32.25 73.80,-32.28 76.44,-32.29 79.09,-32.30 81.07,-32.33 83.06,-32.37 84.48,-32.48 85.90,-32.59 87.44,-32.69 88.99,-32.79 89.28,-32.74 89.57,-32.69 89.82,-32.56 90.08,-32.42 90.28,-32.21 90.48,-32.00 90.60,-31.74 90.72,-31.48 90.75,-31.19 90.78,-30.90 90.72,-30.62 90.66,-30.33 90.51,-30.09 90.36,-29.84 90.14,-29.65 89.92,-29.46 89.65,-29.35 89.38,-29.25 89.09,-29.23 88.80,-29.21 88.52,-29.29 88.24,-29.37 88.00,-29.53 87.76,-29.69 87.59,-29.92 87.41,-30.15 87.32,-30.43 87.23,-30.70 87.23,-30.99 87.23,-31.28 87.32,-31.56 87.41,-31.83 87.59,-32.06 87.76,-32.29 88.00,-32.46 88.24,-32.62 88.52,-32.70 88.80,-32.78 89.09,-32.76 89.38,-32.74 89.65,-32.64 89.92,-32.53 90.14,-32.34 90.36,-32.16 90.51,-31.91 90.66,-31.66 90.72,-31.38 90.78,-31.09 90.75,-30.81 90.72,-30.52 90.60,-30.25 90.48,-29.99 90.28,-29.78 90.08,-29.57 89.82,-29.43 89.57,-29.30 89.28,-29.25 89.00,-29.20 89.00,-29.20 89.00,-29.20 87.45,-29.30 85.90,-29.39 84.48,-29.50 83.06,-29.60 81.08,-29.63 79.10,-29.66 76.46,-29.64 73.82,-29.63 70.32,-29.60 66.82,-29.57 62.64,-29.50 58.45,-29.43 53.35,-29.27 48.25,-29.11 43.01,-28.74 37.77,-28.37 32.71,-27.49 27.65,-26.60 22.61,-25.89 17.57,-25.19 13.05,-24.19 8.53,-23.19 4.64,-22.20 0.76,-21.22 -2.35,-20.25 -5.47,-19.28 -8.13,-18.36 -10.79,-17.44 -12.86,-16.72 -14.92,-16.01 -16.67,-14.93 -18.42,-13.86 -19.87,-12.82 -21.33,-11.78 -22.39,-10.54 -23.46,-9.29 -24.14,-8.35 -24.81,-7.41 -25.16,-6.03 -25.50,-4.66 -25.45,-2.41 -25.39,-0.16 -25.32,2.26 -25.25,4.68 -24.43,7.30 -23.61,9.93 -22.40,12.21 -21.19,14.48 -19.56,16.15 -17.93,17.81 -16.11,19.19 -14.30,20.57 -12.80,21.36 -11.30,22.15 -10.06,22.47 -8.82,22.80 -7.49,22.98 -6.17,23.17 -4.93,21.97 -3.69,20.77 -3.00,19.37 -2.31,17.97 -1.88,16.35 -1.46,14.73 -1.16,12.86 -0.86,10.99 -0.69,9.38 -0.52,7.77 -0.72,5.55 -0.93,3.32 -1.47,2.16 -2.00,1.00 -2.09,0.74 -2.19,0.49 -2.21,0.22 -2.24,-0.04 -2.20,-0.31 -2.16,-0.58 -2.06,-0.83 -1.96,-1.08 -1.80,-1.30 -1.65,-1.52 -1.44,-1.69 -1.23,-1.87 -0.99,-1.99 -0.75,-2.11 -0.49,-2.17 -0.22,-2.23 0.04,-2.22 0.31,-2.22 0.57,-2.15 0.83,-2.08 1.07,-1.95 1.31,-1.82 1.51,-1.63 1.70,-1.45 1.85,-1.22 2.00,-1.00 2.00,-1.00 L 2.00,-1.00 Z"></path></g><g transform="translate(107 11) rotate(0 -42.5 80)" stroke="none"><path fill="#1e1e1e" d="M 1.11,1.11 Q 1.11,1.11 -0.33,2.53 -1.78,3.96 -4.14,6.28 -6.49,8.59 -9.80,11.87 -13.11,15.14 -17.09,19.39 -21.08,23.63 -25.35,28.58 -29.62,33.53 -34.01,39.35 -38.39,45.16 -43.12,52.21 -47.86,59.27 -52.14,67.39 -56.43,75.52 -60.55,84.43 -64.67,93.33 -68.44,102.29 -72.20,111.24 -74.94,119.04 -77.68,126.84 -79.12,132.98 -80.56,139.12 -81.46,143.47 -82.36,147.81 -82.74,150.76 -83.12,153.72 -82.89,155.14 -82.67,156.56 -82.47,158.23 -82.27,159.90 -82.30,160.18 -82.33,160.45 -82.45,160.71 -82.57,160.96 -82.76,161.16 -82.95,161.37 -83.20,161.50 -83.44,161.63 -83.72,161.67 -83.99,161.72 -84.27,161.67 -84.54,161.63 -84.79,161.50 -85.04,161.37 -85.23,161.17 -85.42,160.96 -85.54,160.71 -85.66,160.46 -85.69,160.18 -85.72,159.90 -85.66,159.63 -85.60,159.36 -85.45,159.12 -85.31,158.88 -85.10,158.70 -84.89,158.52 -84.63,158.41 -84.37,158.31 -84.09,158.30 -83.81,158.28 -83.54,158.36 -83.27,158.43 -83.04,158.59 -82.81,158.74 -82.64,158.96 -82.47,159.19 -82.38,159.45 -82.29,159.71 -82.29,159.99 -82.29,160.27 -82.38,160.54 -82.47,160.80 -82.64,161.02 -82.81,161.25 -83.04,161.40 -83.27,161.56 -83.54,161.63 -83.81,161.71 -84.09,161.69 -84.36,161.68 -84.62,161.58 -84.88,161.47 -85.10,161.29 -85.31,161.11 -85.45,160.87 -85.60,160.63 -85.66,160.36 -85.72,160.09 -85.72,160.09 -85.72,160.09 -85.70,158.45 -85.69,156.80 -85.71,155.10 -85.73,153.39 -85.34,150.33 -84.95,147.28 -84.04,142.90 -83.13,138.52 -81.65,132.24 -80.17,125.97 -77.41,118.09 -74.64,110.21 -70.87,101.22 -67.09,92.22 -62.94,83.24 -58.80,74.27 -54.45,66.02 -50.10,57.77 -45.33,50.65 -40.57,43.52 -36.14,37.63 -31.71,31.74 -27.42,26.73 -23.13,21.72 -19.13,17.42 -15.14,13.11 -11.87,9.80 -8.59,6.49 -6.28,4.14 -3.96,1.78 -2.53,0.33 -1.11,-1.11 -0.96,-1.22 -0.81,-1.34 -0.63,-1.42 -0.46,-1.49 -0.28,-1.53 -0.09,-1.56 0.09,-1.55 0.28,-1.54 0.46,-1.48 0.64,-1.43 0.80,-1.33 0.96,-1.23 1.10,-1.10 1.23,-0.96 1.33,-0.80 1.43,-0.64 1.48,-0.46 1.54,-0.28 1.55,-0.09 1.56,0.09 1.53,0.28 1.49,0.46 1.42,0.63 1.34,0.81 1.22,0.96 1.11,1.11 1.11,1.11 L 1.11,1.11 Z"></path></g></svg>